<svg style="max-height: 500px" version="1.0" xmlns="http://www.w3.org/2000/svg" viewBox="121.60659009900989 300.56448 397.0727287128713 374.49728" preserveAspectRatio="xMidYMid meet" width="397.0727287128713" height="374.49728">

<g transform="translate(0.000000,1024.000000) scale(0.100000,-0.100000)" fill="#FFFFFF" stroke="none">
<path d="M1475 6731 c-56 -24 -84 -116 -51 -167 34 -51 57 -54 416 -54 l330 0&#10;30 -27 c27 -24 36 -46 64 -163 19 -74 107 -434 196 -799 154 -629 162 -664&#10;144 -674 -48 -27 -117 -105 -147 -166 -28 -58 -32 -75 -31 -146 1 -116 46&#10;-208 130 -266 l43 -29 -19 -43 c-44 -100 -32 -231 31 -329 64 -100 154 -150&#10;279 -156 70 -3 95 0 143 18 176 66 275 256 224 429 l-15 51 293 0 292 0 -14&#10;-52 c-31 -116 7 -250 96 -338 86 -86 134 -105 261 -105 93 0 111 3 162 27 73&#10;34 142 103 176 176 24 50 27 69 27 157 0 84 -4 107 -24 147 -30 63 -93 132&#10;-146 163 -90 53 -118 55 -927 55 l-746 0 -27 32 c-23 27 -26 39 -22 74 6 59&#10;54 116 125 151 l57 28 795 5 795 5 46 23 c25 12 63 37 85 56 76 65 94 114 209&#10;591 164 682 160 661 146 714 -17 66 -54 116 -108 148 l-48 28 -1126 3 -1126 2&#10;-28 108 c-44 174 -95 245 -214 301 l-56 26 -350 2 c-192 1 -359 -2 -370 -6z&#10;m3211 -668 c-5 -16 -174 -728 -228 -958 -23 -100 -53 -140 -111 -150 -18 -3&#10;-368 -6 -778 -8 l-746 -2 -21 90 c-12 50 -73 301 -137 558 -63 258 -115 473&#10;-115 478 0 5 420 9 1071 9 1015 0 1070 -1 1065 -17z m-475 -1844 c70 -24 109&#10;-80 109 -157 0 -145 -169 -204 -263 -93 -78 93 -13 241 114 260 3 1 21 -4 40&#10;-10z m-1209 -36 c50 -45 64 -141 29 -199 -37 -60 -127 -81 -189 -44 -52 32&#10;-74 76 -69 138 3 45 9 59 39 89 54 54 140 61 190 16z"/>
<path d="M3003 5835 c-75 -33 -84 -145 -14 -192 24 -17 71 -18 601 -21 391 -2&#10;587 0 612 8 50 14 78 52 78 104 0 50 -21 83 -66 102 -49 21 -1164 20 -1211 -1z"/>
<path d="M3092 5384 c-60 -42 -68 -117 -18 -172 l34 -37 499 0 c463 0 500 1&#10;524 18 59 40 64 130 9 180 l-30 27 -498 0 c-435 0 -500 -2 -520 -16z"/>

</g>
</svg>