<svg xmlns="http://www.w3.org/2000/svg" version="1.0" preserveAspectRatio="xMidYMid meet" viewBox="140.99 350.28 764.01 302.62">

<g transform="translate(0.000000,1024.000000) scale(0.100000,-0.100000)" fill="#1876C0" stroke="none">
<path d="M1475 6731 c-56 -24 -84 -116 -51 -167 34 -51 57 -54 416 -54 l330 0 30 -27 c27 -24 36 -46 64 -163 19 -74 107 -434 196 -799 154 -629 162 -664 144 -674 -48 -27 -117 -105 -147 -166 -28 -58 -32 -75 -31 -146 1 -116 46 -208 130 -266 l43 -29 -19 -43 c-44 -100 -32 -231 31 -329 64 -100 154 -150 279 -156 70 -3 95 0 143 18 176 66 275 256 224 429 l-15 51 293 0 292 0 -14 -52 c-31 -116 7 -250 96 -338 86 -86 134 -105 261 -105 93 0 111 3 162 27 73 34 142 103 176 176 24 50 27 69 27 157 0 84 -4 107 -24 147 -30 63 -93 132 -146 163 -90 53 -118 55 -927 55 l-746 0 -27 32 c-23 27 -26 39 -22 74 6 59 54 116 125 151 l57 28 795 5 795 5 46 23 c25 12 63 37 85 56 76 65 94 114 209 591 164 682 160 661 146 714 -17 66 -54 116 -108 148 l-48 28 -1126 3 -1126 2 -28 108 c-44 174 -95 245 -214 301 l-56 26 -350 2 c-192 1 -359 -2 -370 -6z m3211 -668 c-5 -16 -174 -728 -228 -958 -23 -100 -53 -140 -111 -150 -18 -3 -368 -6 -778 -8 l-746 -2 -21 90 c-12 50 -73 301 -137 558 -63 258 -115 473 -115 478 0 5 420 9 1071 9 1015 0 1070 -1 1065 -17z m-475 -1844 c70 -24 109 -80 109 -157 0 -145 -169 -204 -263 -93 -78 93 -13 241 114 260 3 1 21 -4 40 -10z m-1209 -36 c50 -45 64 -141 29 -199 -37 -60 -127 -81 -189 -44 -52 32 -74 76 -69 138 3 45 9 59 39 89 54 54 140 61 190 16z"/>
<path d="M3003 5835 c-75 -33 -84 -145 -14 -192 24 -17 71 -18 601 -21 391 -2 587 0 612 8 50 14 78 52 78 104 0 50 -21 83 -66 102 -49 21 -1164 20 -1211 -1z"/>
<path d="M3092 5384 c-60 -42 -68 -117 -18 -172 l34 -37 499 0 c463 0 500 1 524 18 59 40 64 130 9 180 l-30 27 -498 0 c-435 0 -500 -2 -520 -16z"/>
<path d="M5462 6145 c-67 -19 -85 -28 -134 -73 -59 -53 -81 -103 -86 -197 -4 -68 -1 -88 18 -128 38 -81 109 -129 267 -181 107 -36 144 -61 162 -113 19 -53 3 -95 -50 -130 -35 -23 -46 -25 -121 -21 -69 3 -94 9 -148 35 -36 18 -80 44 -97 59 l-33 27 0 -107 0 -106 33 -20 c66 -41 135 -55 272 -55 113 1 138 4 189 24 150 60 219 208 170 370 -26 90 -108 153 -268 207 -144 49 -200 106 -176 180 17 50 58 69 151 69 69 -1 85 -4 158 -41 l81 -40 0 93 c0 104 -1 106 -90 138 -64 24 -231 29 -298 10z"/>
<path d="M8705 6061 l-30 -6 -3 -98 -3 -97 -59 0 -60 0 0 -85 0 -85 60 0 60 0 0 -189 0 -189 33 -64 c46 -90 90 -113 212 -113 125 0 135 7 135 94 l0 69 -44 -5 c-64 -8 -94 3 -116 40 -18 28 -20 51 -20 195 l0 162 90 0 90 0 0 85 0 85 -90 0 -90 0 0 105 0 105 -67 -1 c-38 -1 -81 -4 -98 -8z"/>
<path d="M6355 5871 c-47 -12 -91 -38 -113 -66 -27 -34 -32 -32 -32 15 l0 41 -92 -3 -93 -3 0 -355 0 -355 98 -3 c74 -2 97 0 97 10 2 362 7 476 18 496 30 53 117 78 177 50 54 -24 59 -51 65 -313 l5 -240 98 -3 97 -3 0 242 c0 269 3 284 68 315 46 21 115 14 147 -16 37 -35 45 -93 45 -324 l0 -216 101 0 100 0 -3 283 c-3 267 -4 284 -25 322 -45 84 -111 124 -219 133 -81 6 -154 -17 -215 -68 l-45 -38 -26 32 c-15 18 -42 40 -60 49 -40 19 -150 29 -193 18z"/>
<path d="M7467 5869 c-42 -10 -108 -42 -149 -72 -27 -20 -28 -25 -28 -104 0 -46 3 -83 6 -83 4 0 22 14 41 30 62 55 125 80 200 80 81 0 127 -23 149 -75 30 -72 26 -75 -84 -75 -171 0 -287 -46 -329 -130 -27 -53 -31 -155 -9 -199 25 -47 80 -88 136 -100 116 -25 209 -5 276 60 l31 30 -1 -43 -1 -43 90 0 90 0 0 250 c0 266 -4 294 -51 367 -13 21 -42 49 -64 63 -73 46 -210 66 -303 44z m233 -444 c0 -55 -18 -93 -60 -129 -26 -21 -42 -26 -85 -26 -73 0 -110 30 -110 88 0 76 57 109 193 111 l62 1 0 -45z"/>
<path d="M8400 5871 c-48 -15 -87 -40 -119 -76 -17 -20 -31 -40 -31 -45 0 -6 -3 -10 -7 -10 -5 0 -8 26 -8 57 l0 58 -92 0 c-51 0 -93 -3 -93 -7 0 -5 0 -166 0 -358 l0 -351 98 3 97 3 5 215 c5 195 7 218 25 242 32 44 92 68 166 68 l64 0 -3 93 c-2 50 -6 95 -10 99 -12 12 -65 18 -92 9z"/>
<path d="M5230 4425 l0 -486 98 3 97 3 0 342 c0 188 3 339 6 335 3 -4 59 -128 123 -277 64 -148 122 -273 129 -277 7 -4 42 -8 79 -8 54 0 69 4 80 19 7 10 65 139 128 285 l115 267 3 -346 2 -345 100 0 100 0 0 485 0 485 -134 0 -134 0 -59 -132 c-33 -73 -90 -208 -128 -300 -38 -92 -69 -167 -70 -165 -1 1 -46 106 -100 232 -53 127 -113 260 -131 298 l-34 67 -135 0 -135 0 0 -485z"/>
<path d="M7815 4851 l-40 -6 -3 -97 -3 -98 -59 0 -60 0 0 -80 0 -80 60 0 60 0 0 -182 c0 -101 5 -200 10 -220 15 -53 69 -120 114 -142 41 -20 142 -26 209 -13 l37 8 0 74 0 74 -54 -6 c-51 -5 -57 -4 -85 25 l-31 30 0 176 0 176 85 0 85 0 0 80 0 80 -85 0 -84 0 -3 103 -3 102 -55 1 c-30 1 -73 -1 -95 -5z"/>
<path d="M7531 4658 c-52 -14 -106 -53 -132 -95 l-24 -38 -5 60 -5 60 -92 3 -93 3 0 -356 0 -355 95 0 95 0 0 200 c0 224 3 239 67 287 30 23 48 28 110 31 l74 4 -3 96 c-3 93 -4 96 -28 102 -14 4 -40 3 -59 -2z"/>
<path d="M6580 4651 c-39 -12 -89 -40 -111 -62 -16 -16 -19 -33 -19 -104 0 -50 4 -85 10 -85 5 0 27 16 48 35 22 19 59 44 83 55 55 24 157 27 200 5 35 -19 69 -70 69 -106 0 -25 -1 -25 -87 -27 -193 -5 -295 -48 -344 -145 -31 -60 -24 -160 15 -212 41 -54 102 -78 201 -78 90 -1 132 13 184 62 18 17 35 31 37 31 2 0 2 -17 1 -37 l-2 -38 88 0 88 0 -1 259 c-1 255 -1 259 -26 312 -27 58 -63 91 -134 123 -37 17 -65 20 -160 20 -63 0 -126 -4 -140 -8z m280 -438 c0 -90 -63 -153 -153 -153 -40 0 -54 5 -78 29 -31 31 -35 53 -19 95 18 49 79 73 188 75 l62 1 0 -47z"/>
</g>
</svg>